<?xml version="1.0" encoding="UTF-8"?><svg id="Layer_1" xmlns="http://www.w3.org/2000/svg" viewBox="0 0 500 500"><path d="m155.35,344.55c5.61-12.83,11.54-25.52,17.68-38.11,1.65-3.33,3.3-6.67,4.95-10.01,1.68-3.32,3.34-6.66,4.92-10.02,8.58-17.87,17.88-35.44,28.13-52.5,10.25-17.05,21.45-33.61,33.86-49.3,15.38-19.22,32.26-37.35,50.96-53.53,4.59-4.14,9.47-7.95,14.26-11.86,2.43-1.92,4.93-3.74,7.4-5.61l3.71-2.79c1.26-.91,2.54-1.77,3.81-2.66l7.64-5.29,7.84-5c1.32-.82,2.6-1.69,3.94-2.47l4.02-2.34,4.02-2.34c1.34-.77,2.67-1.58,4.05-2.28,3.31-1.75,6.71-3.38,10.12-4.94,3.46-1.46,6.97-2.78,10.42-4.11.83-.32,1.63-.6,2.4-.84.78-.23,1.55-.4,2.28-.55,1.47-.3,2.83-.48,4.08-.55,2.51-.14,4.61.16,6.36.76,5.05,1.77,2.67,6.94-5.75,11.47-1.35.69-2.69,1.48-4.08,2.22-1.39.74-2.8,1.47-4.23,2.17-1.43.7-2.88,1.39-4.33,2.05-1.43.71-2.85,1.42-4.26,2.11-13.03,6.2-25.52,13.6-37.21,22.1-11.72,8.46-22.74,17.89-32.99,28.07-2.78,2.86-5.61,5.78-8.43,8.68-2.76,2.95-5.59,5.79-8.49,8.37-9.12,8.41-17.51,17.66-25.38,27.34-7.79,9.75-15.21,19.78-22.46,29.95-10.85,15.06-20.35,31.2-29.45,47.47-16.28,29.02-30.38,59.34-42.99,90.32-5.01,12.37-10.46,23.76-17,33.34-3.04,4.4-6.05,2.99-4.72-2.93,1.86-8.38,4.3-17.01,7.09-25.48,2.26-6.98,5.28-13.88,8.03-20.78-.06-.05-.11-.09-.18-.15Z"/><path d="m108.14,381.83c-4.16-15.4-7.84-30.98-10.72-46.77-.74-4.19-1.43-8.4-2.13-12.61l-.94-6.33c-.33-2.11-.68-4.21-.94-6.33l-1.17-8.46-.89-8.5c-.34-2.83-.45-5.69-.67-8.54l-.29-4.27c-.09-1.43-.1-2.86-.15-4.29-.52-11.42-.1-23.01,1.14-34.45,2.53-22.89,8.49-45.59,18.62-66.62,6.24-12.93,14.07-25.2,23.57-36.19,9.48-10.97,20.66-20.65,33.16-28.21l4.7-2.78c1.58-.9,3.22-1.69,4.83-2.53,3.2-1.75,6.55-3.12,9.85-4.62,6.69-2.75,13.49-5.22,20.41-7.1,6.9-2.01,13.89-3.47,20.89-4.76,3.51-.55,7.01-1.2,10.52-1.61l5.26-.68,5.27-.54c8.47-.81,17.06-.81,25.38-.47,3.99.13,7.27.72,9.95,1.5,2.68.83,4.75,1.9,6.34,3.13,2.31,1.78,2.28,3.64.32,5.18-1.96,1.55-5.86,2.72-11.35,3.31-3.48.33-7.09.66-10.75.83-3.64.27-7.33.34-10.89.55-8.22.34-16.39,1.1-24.46,2.33-4.05.56-8.03,1.38-12.02,2.18l-5.92,1.41c-1.97.47-3.9,1.09-5.84,1.63-.97.29-1.95.55-2.91.86l-2.86.98c-1.9.67-3.83,1.26-5.67,2.06-1.86.76-3.73,1.49-5.57,2.28l-5.42,2.57c-.91.41-1.79.89-2.66,1.38l-2.62,1.44c-.87.48-1.75.95-2.61,1.45l-2.51,1.6c-3.37,2.09-6.63,4.33-9.72,6.81-3.46,2.66-6.71,5.7-9.93,8.7-1.56,1.56-3.18,3.03-4.7,4.6-.78.76-1.55,1.52-2.32,2.27-.75.77-1.51,1.53-2.27,2.27-9.72,9.51-17.58,21.07-23.76,33.43-6.2,12.39-10.78,25.59-14.37,39.03-1.34,5-2.47,10.07-3.35,15.19-.48,2.55-.82,5.13-1.21,7.71-.3,2.58-.66,5.16-.87,7.76-.51,5.18-.8,10.39-.92,15.6-.09,2.6-.05,5.22-.02,7.84l.03,3.93v1.96s.1,1.96.1,1.96l.3,7c.03,1.17.11,2.33.22,3.5l.28,3.5c.3,4.67.88,9.33,1.4,13.99.23,2.33.64,4.65.95,6.98.36,2.32.62,4.66,1.06,6.97.81,4.64,1.57,9.28,2.55,13.9,3.66,18.5,8.61,36.81,14.07,55.01,4.36,14.52,7.93,28.43,9.25,41.47.6,6-2.66,6.71-5.57.5-4.13-8.79-8.03-18.18-11.57-27.67-1.44-3.91-2.78-7.9-4.01-11.97-.62-2.03-1.23-4.06-1.85-6.09-.6-2.04-1.2-4.08-1.79-6.11-.08,0-.15,0-.24,0Z"/><path d="m175.72,418.32c11.92-7.77,24.07-14.97,36.23-22.06,6.44-3.76,12.93-7.47,19.21-11.41,16.77-10.52,33.27-21.18,48.93-32.8,15.66-11.61,30.43-24.2,43.5-38.2,8.03-8.63,15.32-17.86,21.58-27.69l2.28-3.72c.76-1.24,1.55-2.47,2.23-3.74.7-1.26,1.42-2.51,2.07-3.79.67-1.28,1.34-2.55,1.95-3.86,2.52-5.19,4.71-10.54,6.57-16,3.71-10.92,6.09-22.31,6.89-33.75.8-11.43,0-22.94-2.71-33.9-1.65-6.59-3.4-13.26-5.98-19.53-.31-.75-.58-1.48-.82-2.19-.25-.71-.5-1.37-.71-2.03-.41-1.32-.71-2.57-.96-3.72-.24-1.16-.35-2.27-.41-3.3-.07-1.02-.05-1.99.06-2.91.31-2.68,1.76-3.84,4.05-3.25,2.28.58,5.46,2.94,8.43,7.34,3.8,5.54,6.8,12.34,8.65,18.99,2.15,7.65,3.6,15.43,4.27,23.24.7,7.8.76,15.62.18,23.38-.54,7.76-1.66,15.45-3.33,23.03-1.64,7.59-3.79,15.07-6.47,22.39-1.45,4.05-3.1,8.14-4.98,12.1-1.85,3.97-4.07,7.75-6.48,11.13-7.66,10.88-15.92,21.21-24.88,30.85-8.95,9.64-18.64,18.51-28.93,26.46-7.63,5.93-15.44,11.6-23.35,17.08-7.91,5.48-15.94,10.76-24.1,15.75-29.03,17.83-58.77,33.83-86.06,53.31-10.88,7.77-21.22,14.85-31.49,20.42-4.74,2.54-6.85-.03-2.83-4.78,2.8-3.41,5.93-6.61,9.11-9.87,3.26-3.15,6.6-6.3,10.09-9.23,5.68-4.91,12.07-9.18,18.26-13.52-.02-.07-.05-.14-.07-.22Z"/></svg>