<?xml version="1.0" encoding="UTF-8"?><svg id="Layer_1" xmlns="http://www.w3.org/2000/svg" viewBox="0 0 500 500"><path d="m202.25,233.88c-20.46.47-40.89,3.52-60.64,9.09l-.11.03c-3.89,1.1-7.93-1.17-9.02-5.06-.42-1.48-.35-2.97.11-4.33,12.24-36.2,27.93-71.21,46.71-104.47l2.92-5.15,1.46-2.58,1.53-2.54,6.11-10.16c4.24-6.67,8.4-13.41,12.87-19.93,4.33-6.62,8.98-13.02,13.53-19.48l7.05-9.52,1.76-2.38,1.82-2.34,3.63-4.67c3.77-4.96,7.77-9.74,11.7-14.57,1.95-2.43,4.01-4.77,6.04-7.13l6.1-7.08c2.27-2.63,6.25-2.93,8.88-.66.28.24.53.49.75.77l.1.12,1.04,1.27c.97,1.19,1.43,2.62,1.42,4.04v.05c-.14,20.12.73,40.25,2.61,60.27l-10.39-4.76c48.73-35.14,107.29-56.43,167.34-60.74,3.97-.28,7.41,2.7,7.7,6.67.22,3.05-1.5,5.79-4.11,7.03l-.07.03c-33.14,15.55-64.04,35.84-92.36,59.21-28.31,23.4-54.09,49.9-76.95,78.68l-6.35,8.11-6.69-12.5c36.69-2.4,73.79,1.87,109.02,12.54,4.17,1.26,6.53,5.67,5.27,9.85-.65,2.15-2.14,3.82-4,4.76l-.05.03c-23.54,11.78-45.94,26.04-67.24,41.81-21.3,15.78-41.53,33.09-60.74,51.47-19.2,18.4-37.35,37.91-54.42,58.32-17.05,20.42-33.02,41.74-47.52,63.97l-7.73-12.19c8.99-1.15,17.45-1.05,25.84-.8,8.37.29,16.62.86,24.83,1.47,4.36.33,7.63,4.13,7.31,8.49-.2,2.64-1.67,4.88-3.77,6.17l-.05.03c-16.96,10.22-33.83,20.41-50.17,31.25-16.35,10.82-32.31,22.36-48.2,34.1l-.04.03c-3.49,2.58-8.41,1.84-10.99-1.65-.99-1.33-1.49-2.88-1.53-4.42l-.23-7.15c-.87-31.28.8-62.9,4.31-93.55.76-6.78,1.67-12.99,2.58-18.53l.09-.56c.54-3.31,3.67-5.56,6.98-5.01,2.39.39,4.23,2.14,4.86,4.32,5.15,17.92,10.13,29.82,13.28,38.46,1.49,4.06,1.93,6.34,1.27,6.95-.64.6-2.38-.45-5.01-3.19-2.61-2.74-6.16-7.17-10-13.53-3.85-6.34-7.88-14.63-11.51-24.6l12.61-1.32c0,.07-.01.16-.02.25-2.56,25.94-4.45,54.34-4.93,81.28-.21,11.9-.14,23.8.21,35.65l-10.54-5.07c16.06-11.73,32.29-23.35,48.99-34.34,16.69-11.01,33.74-21.27,50.7-31.5l2.75,11.56c-8.12-.61-16.22-1.16-24.25-1.42-8-.25-16.01-.26-23.44.72h-.03c-3.44.46-6.59-1.96-7.05-5.4-.2-1.54.18-3.03.96-4.24,15.69-24.13,32.92-47.17,51.34-69.2,18.43-22.02,38.06-43.03,58.89-62.86,3.17-2.98,6.31-6.03,9.54-9,3.28-2.93,6.56-5.86,9.86-8.8l4.95-4.41,5.1-4.25c3.4-2.83,6.81-5.66,10.21-8.49,13.9-10.93,28-21.49,42.54-30.39,13.69-8.81,28.1-16.54,42.7-23.95l1.11,13.36c-33.33-10.44-68.72-14.65-103.69-12.43h-.05c-3.74.24-6.97-2.6-7.21-6.34-.11-1.72.44-3.33,1.41-4.59,8.61-11.1,17.5-21.98,26.87-32.44,2.3-2.65,4.75-5.17,7.11-7.77,2.38-2.58,4.76-5.17,7.24-7.65l7.37-7.53,7.57-7.33c1.27-1.21,2.51-2.45,3.8-3.65l3.89-3.55c2.61-2.35,5.16-4.77,7.81-7.07,5.33-4.58,10.61-9.21,16.12-13.57,5.4-4.49,11.06-8.66,16.64-12.91,2.82-2.09,5.71-4.08,8.57-6.13l4.3-3.05,4.39-2.91c19.02-12.7,38.98-24.11,59.89-33.83l3.08,12c-55.94,3.7-110.96,23.06-157.19,54.93l-3.75,2.56-.12.08c-2.73,1.87-6.45,1.17-8.31-1.56-.6-.87-.93-1.88-1.02-2.86-1.78-20.46-2.53-41.01-2.25-61.53l1.29,3.69-1.03-1.28,8.8.21c-53.81,60.01-95.21,131.18-120.74,207.72l-5.94-6.16c25.39-7.27,51.88-10.56,78.24-9.73,2.51.08,4.48,2.18,4.4,4.68-.04,1.3-.63,2.46-1.53,3.26-9.4,8.31-18.46,16.99-27.12,26.09-9.63,10.24-18.67,20.75-27.19,31.38-8.48,10.67-16.31,21.54-23.71,32.38-7.34,10.88-14.04,21.85-20.35,32.7-1.52,2.75-3.03,5.48-4.53,8.19-.74,1.36-1.53,2.69-2.23,4.06-.71,1.37-1.41,2.73-2.12,4.09-1.39,2.72-2.87,5.39-4.18,8.11-1.32,2.72-2.64,5.42-3.94,8.09-1.25,2.45-2.2,4.62-3.13,6.42-.91,1.8-1.72,3.26-2.41,4.37-1.38,2.22-2.29,3.05-2.67,2.49-.37-.56-.21-2.51.58-5.86.39-1.67.94-3.69,1.65-6.06.73-2.36,1.74-5.02,2.87-8.03,13.1-34.09,32.15-67.73,55.15-98.17,8.11-10.6,16.77-20.99,26.02-30.93,9.3-9.89,19.09-19.41,29.3-28.42l4.79,13.27c-4.55-.11-9.08-.13-13.6,0-.08.08-.16.15-.26.23Z"/></svg>