<svg id="visual" viewBox="0 0 900 600" width="900" height="600" xmlns="http://www.w3.org/2000/svg" xmlns:xlink="http://www.w3.org/1999/xlink" version="1.1"><rect x="0" y="0" width="900" height="600" fill="transparent"></rect><g transform="translate(430.44295144536324 309.8236094975939)"><path d="M176.8 -199.2C225.1 -170.2 257.3 -110.6 257.5 -53.7C257.7 3.3 225.8 57.6 191 103.1C156.2 148.6 118.5 185.2 74.9 197.5C31.2 209.9 -18.2 198 -65.5 180.5C-112.7 163 -157.7 140 -186.1 102C-214.5 64 -226.4 11 -212.7 -32.5C-199.1 -75.9 -159.8 -109.8 -120.1 -140.3C-80.4 -170.8 -40.2 -197.9 12.1 -212.2C64.3 -226.6 128.6 -228.2 176.8 -199.2" fill="#6eff88"></path></g></svg>