<svg id="visual" viewBox="0 0 900 900" width="900" height="900" xmlns="http://www.w3.org/2000/svg" xmlns:xlink="http://www.w3.org/1999/xlink" version="1.1"><rect x="0" y="0" width="900" height="900" fill="transparent"></rect><g transform="translate(488.51283238329796 446.7311594852024)"><path d="M235.8 -289.6C291.2 -234.5 311.8 -146.6 316.2 -64.2C320.6 18.1 308.8 94.8 279.1 175C249.3 255.3 201.6 339.1 132.4 364.7C63.2 390.3 -27.6 357.7 -113.6 322.1C-199.6 286.4 -280.8 247.7 -332 181C-383.1 114.3 -404.3 19.7 -389.5 -69.4C-374.7 -158.5 -323.9 -242.1 -253 -294.4C-182.1 -346.7 -91.1 -367.9 -0.4 -367.3C90.2 -366.8 180.4 -344.7 235.8 -289.6" fill="#711fff"></path></g></svg>