<svg id="visual" viewBox="0 0 900 900" width="900" height="900" xmlns="http://www.w3.org/2000/svg" xmlns:xlink="http://www.w3.org/1999/xlink" version="1.1"><rect x="0" y="0" width="900" height="900" fill="transparent"></rect><g transform="translate(405.93852430485697 444.46959823868553)"><path d="M251.8 -284.1C325.3 -238.4 383.3 -158.1 403.6 -67.5C424 23.1 406.9 124.1 352.7 190.1C298.5 256.2 207.2 287.4 118.3 315.6C29.4 343.9 -57.1 369.3 -125.2 344.3C-193.2 319.4 -242.7 244.1 -275.9 168.2C-309.1 92.4 -325.9 16 -323.6 -67.4C-321.3 -150.9 -299.8 -241.3 -242.7 -289.9C-185.6 -338.5 -92.8 -345.2 -1.8 -343.1C89.1 -340.9 178.3 -329.8 251.8 -284.1" fill="rgb(84, 191, 80)"></path></g></svg>