<svg id="visual" viewBox="0 0 900 900" width="900" height="900" xmlns="http://www.w3.org/2000/svg" xmlns:xlink="http://www.w3.org/1999/xlink" version="1.1"><rect x="0" y="0" width="900" height="900" fill="transparent"></rect><g transform="translate(444.24544825796147 466.2104152978957)"><path d="M234.6 -293.5C294.9 -229.1 328.2 -146.4 347.5 -58.1C366.8 30.2 372.2 124.1 332.9 192.2C293.6 260.3 209.5 302.6 121.5 335.3C33.4 368 -58.7 391.2 -128.3 361.9C-198 332.5 -245.1 250.6 -283.8 170.3C-322.6 90 -352.8 11.2 -350.7 -72.4C-348.6 -156.1 -314.1 -244.7 -250.3 -308.4C-186.4 -372.2 -93.2 -411.1 -3 -407.5C87.2 -403.9 174.4 -357.9 234.6 -293.5" fill="#d769ff"></path></g></svg>