<svg id="visual" viewBox="0 0 900 900" width="900" height="900" xmlns="http://www.w3.org/2000/svg" xmlns:xlink="http://www.w3.org/1999/xlink" version="1.1"><rect x="0" y="0" width="900" height="900" fill="transparent"></rect><g transform="translate(440.65426402062474 439.87096290052125)"><path d="M220.1 -254.3C290.7 -203.1 357.1 -138.9 378.6 -60.3C400.1 18.2 376.7 111.1 327.2 181.5C277.7 251.9 202.1 299.8 117.6 336.3C33.1 372.7 -60.4 397.8 -130.2 368C-200 338.2 -246.2 253.5 -288.3 171C-330.4 88.6 -368.6 8.4 -367.9 -76.9C-367.1 -162.2 -327.6 -252.7 -259.8 -304.4C-192 -356.1 -96 -369.1 -10.6 -356.4C74.8 -343.8 149.6 -305.6 220.1 -254.3" fill="#F4DE52"></path></g></svg>